inDegrees=no
num_controls=7
num_derivatives=13
num_iterations=71
num_multipliers=7
num_parameters=0
num_slacks=7
num_states=26
objective=5.602630
objective_accelerations=0.243169
objective_balance=0.053075
objective_effort=0.361606
objective_height=4.899621
objective_ligament=0.045160
solver_duration=616.495433
status=Solve_Succeeded
success=true
DataType=double
version=3
OpenSimVersion=4.4-2022-07-23-0e9fedc
endheader
time	/jointset/ground_pelvis/pelvis_tilt/value	/jointset/ground_pelvis/pelvis_tx/value	/jointset/ground_pelvis/pelvis_ty/value	/jointset/hip_r/hip_flexion_r/value	/jointset/hip_r/hip_adduction_r/value	/jointset/hip_r/hip_rotation_r/value	/jointset/back/lumbar_extension/value	/jointset/patellofemoral_r/patellar_flexion_r/value	/jointset/knee_r/knee_flexion_r/value	/jointset/knee_r/knee_adduction_r/value	/jointset/knee_r/knee_rotation_r/value	/jointset/ankle_r/ankle_angle_r/value	/jointset/subtalar_r/subtalar_angle_r/value	/jointset/ground_pelvis/pelvis_tilt/speed	/jointset/ground_pelvis/pelvis_tx/speed	/jointset/ground_pelvis/pelvis_ty/speed	/jointset/hip_r/hip_flexion_r/speed	/jointset/hip_r/hip_adduction_r/speed	/jointset/hip_r/hip_rotation_r/speed	/jointset/back/lumbar_extension/speed	/jointset/patellofemoral_r/patellar_flexion_r/speed	/jointset/knee_r/knee_flexion_r/speed	/jointset/knee_r/knee_adduction_r/speed	/jointset/knee_r/knee_rotation_r/speed	/jointset/ankle_r/ankle_angle_r/speed	/jointset/subtalar_r/subtalar_angle_r/speed	/forceset/tau_hip_flexion_r	/forceset/tau_hip_adduction_r	/forceset/tau_hip_rotation_r	/forceset/tau_knee_flexion_r	/forceset/tau_ankle_angle_r	/forceset/tau_subtalar_angle_r	/forceset/tau_lumbar_extension	lambda_cid13_p0	lambda_cid14_p0	lambda_cid14_p1	lambda_cid14_p2	lambda_cid14_p3	lambda_cid14_p4	lambda_cid14_p5	/jointset/ground_pelvis/pelvis_tilt/accel	/jointset/ground_pelvis/pelvis_tx/accel	/jointset/ground_pelvis/pelvis_ty/accel	/jointset/hip_r/hip_flexion_r/accel	/jointset/hip_r/hip_adduction_r/accel	/jointset/hip_r/hip_rotation_r/accel	/jointset/back/lumbar_extension/accel	/jointset/patellofemoral_r/patellar_flexion_r/accel	/jointset/knee_r/knee_flexion_r/accel	/jointset/knee_r/knee_adduction_r/accel	/jointset/knee_r/knee_rotation_r/accel	/jointset/ankle_r/ankle_angle_r/accel	/jointset/subtalar_r/subtalar_angle_r/accel	gamma_cid13_p0	gamma_cid14_p0	gamma_cid14_p1	gamma_cid14_p2	gamma_cid14_p3	gamma_cid14_p4	gamma_cid14_p5
0.5	-0.02160136845333893	0.09028520212922075	0.8948258952853733	0.4832440646182574	-0.2330690743153813	-0.1516890661521388	-0.2949044354876945	0.5595710884115441	0.5595710884114891	0.07123350185894507	0.1745230325918873	0.2624051406878962	0.05266185751647794	-0.0508961158068179	-0.0150415626018674	-0.2009191739573817	0.8504418341383264	-0.01447367570356919	0.2375657780959513	-0.6064238547256626	1.329379106611455	1.329379106611476	-0.2131271908940193	9.013792825298675e-05	0.6071933089798179	0.1515055997613788	-0.02171628541565512	-0.006757174884780142	0.004353586499507308	-0.3117392543681409	0.03032087879429803	-0.02361633445508005	0.09781556101992891	-38.32999078236037	-33.54554852183209	-12.28074876197587	-1.979094084973584	8.439196131942767	-678.9575604657186	48.88218092913205	-0.07504315340353501	0.07213621833834206	-0.2332171598148948	-0.4706185496161289	-0.01583060858935757	-0.4179914928861185	0.9306897437745764	-0.8863283639803829	-0.8863283639803827	0.3171964684689054	-0.02282774106157164	-0.4421703726456707	-0.02578104621657083	-9.369679711744722e-08	-4.661750383136994e-08	9.459324781628323e-07	-5.503095143896279e-07	-7.442605623181549e-08	-2.177362299783629e-08	8.760097733619088e-07
0.51	-0.02211434062333466	0.09013846038896749	0.8928054181316332	0.4917240196568536	-0.2332150547323675	-0.1493349187327583	-0.300920958123534	0.5728187574727931	0.5728187574726248	0.06911897482421048	0.1745237307800455	0.2684540456742485	0.05417476350956252	-0.05169569518738275	-0.01430050741160968	-0.2031309742487883	0.8454262242384699	-0.01471874339098944	0.2332421842508218	-0.5967959227206022	1.319960022744878	1.319960022744757	-0.2097719432319367	5.163415939243344e-05	0.6025081387088764	0.1510567437719549	-0.02531637788839681	-0.004905689968131453	0.004755946631308834	-0.3139079102583247	0.02550837126909917	-0.02251856365544658	0.1013936026952011	-37.78217222500016	-35.13200267847276	-12.18133157073312	-1.88121313147236	8.969107592048413	-680.8907753570131	48.77552081913835	-0.08202754610896451	0.07601753728612093	-0.2083729807120588	-0.5354796033993315	-0.02830689408088469	-0.442883078598432	0.9915573866148331	-0.9988827321863729	-0.9988827322074026	0.3457218098258719	0.005876392161888849	-0.493642082311963	-0.05718728611037299	-8.786727734073228e-08	-4.448112787341405e-08	8.825200961915278e-07	-5.324826012511323e-07	-6.966007798625159e-08	-1.778697125404526e-08	8.340922008675924e-07
0.52	-0.02263523103031166	0.0899993146742004	0.8907641806715982	0.5001501291178233	-0.2333633782353553	-0.1470246752014479	-0.3068386589477652	0.5859663988285462	0.5859663988282672	0.06703820684501695	0.174524091547948	0.2744537086122903	0.05568263106058669	-0.0524797631969537	-0.01352235750463167	-0.2050712352164938	0.8396727186094854	-0.01494229288889487	0.2287850004747931	-0.5866594924058133	1.30937356551071	1.309373565510449	-0.20637537977991	2.265386893538629e-05	0.5973448993181947	0.1504979113503212	-0.02891647036077394	-0.003054205051450007	0.005158306763115274	-0.316076566148412	0.02069586374392255	-0.02142079285576002	0.1049716443707714	-37.21142257335435	-36.72732639260568	-12.07917011917219	-1.788678437887496	9.500603558622609	-682.9718620035862	48.72092026900427	-0.07194087920491203	0.07955516168268691	-0.1789092950746791	-0.6181976954418839	-0.01152697068638239	-0.4447094790659857	1.032389405720176	-1.119803037498437	-1.119803037498436	0.3254596264576834	-0.02092304538088715	-0.537784196593395	-0.04777633265841086	-8.254829729695491e-08	-4.226467567139017e-08	8.267258409170853e-07	-5.135099064444667e-07	-6.555409731994519e-08	-1.434434528150808e-08	7.946681584066755e-07
0.53	-0.02316386399451819	0.08986811256719664	0.8887049147605839	0.5085151023999396	-0.2335138082363407	-0.1447594941820542	-0.31265256891608	0.5990024791452676	0.5990024791451227	0.06499159030146051	0.174524082306086	0.2803994083045782	0.05718438117767771	-0.05324184385869168	-0.01271392387055511	-0.2067349243625849	0.8332048947603233	-0.01514113652627204	0.2242367467162588	-0.5760490766268852	1.297659860267035	1.297659860266909	-0.2029394683944684	-2.411854414261563e-05	0.591719469140905	0.1498315063969783	-0.03240785082134338	-0.001324876996484369	0.005549518854786719	-0.3182594830014893	0.01602249442235172	-0.02040022618199226	0.108450885602762	-36.62025722273097	-38.27754913359237	-12.00550742909161	-1.688326539309326	10.02410369119372	-684.9670544006864	48.6331929822701	-0.0775991239580556	0.08209578955971088	-0.1530478380390113	-0.6786358456513211	-0.02369527817017359	-0.4621525805519106	1.086381357965912	-1.224533953115991	-1.224533953095679	0.3540048560311016	0.003428291490674663	-0.5862748089206192	-0.07909779357908538	-7.734990258935111e-08	-4.005811422680431e-08	7.712755512761611e-07	-4.939846512526443e-07	-6.144442606128412e-08	-1.091135131869221e-08	7.543660199840313e-07
0.54	-0.02369996925823057	0.08974511646159172	0.8866304221353771	0.5168118852203859	-0.2336661531173529	-0.1425402495514715	-0.3183581719877972	0.6119159464725709	0.6119159464724668	0.06297960246408944	0.1745236018661142	0.2862865832189661	0.05867886220184859	-0.05397422309239582	-0.01188115722486079	-0.2081165780551696	0.8260346262712626	-0.01532526887990695	0.219597722705535	-0.5649981130884778	1.284850967610807	1.284850967610816	-0.1994496385512602	-7.158572673305035e-05	0.5856399437386635	0.1490440927673541	-0.03589923128153642	0.0004044510585104738	0.005940730945412573	-0.3204423998544375	0.01134912510080509	-0.01937965950815417	0.1119301268350698	-36.01119948616632	-39.83676990667882	-11.92926274829554	-1.593135308268328	10.55024248872981	-687.1107156184227	48.59522388973289	-0.06600059359831743	0.08442176400657174	-0.1225022043733972	-0.7586866234217872	-0.008584713937988922	-0.4628635295039447	1.120498957615985	-1.338840520008993	-1.338840520008912	0.3362433180110059	-0.0210619992833426	-0.6286032415833419	-0.07197806791455905	-7.228492144517338e-08	-3.786249574789455e-08	7.16205819357427e-07	-4.73848052655967e-07	-5.733067159406047e-08	-7.48901404748287e-09	7.13092371135646e-07
0.55	-0.02424323346615774	0.08963054592519405	0.8845435323078675	0.5250335531084174	-0.2338202359825341	-0.1403677334657988	-0.3239511947590193	0.62469600153663	0.6246960015367189	0.06100272875445268	0.1745225611119239	0.2921107560913443	0.06016489857962674	-0.05467182305473051	-0.01103098580981038	-0.2092133892004956	0.8181892531126709	-0.0154892746910665	0.2148925275973579	-0.5535458127603115	1.270990755426826	1.270990755426849	-0.1959177679011334	-0.0001335468952512341	0.5791234729486838	0.1481417224915263	-0.03924465364097449	0.001996002631112318	0.006322384716168236	-0.3226651242617363	0.006874882945885984	-0.01843432079464947	0.115274296298113	-35.38671933849388	-41.32946783637516	-11.87693379886728	-1.490827843480773	11.05453717373812	-689.1325403690631	48.5327146266128	-0.07062537122747489	0.08559845070571805	-0.09607195714104132	-0.8139217113314763	-0.02002678055314529	-0.4763823204744992	1.166689829212983	-1.434991129349331	-1.434991129347337	0.3628254874834365	0.001621601766871802	-0.6738571376565446	-0.1025326204183765	-6.738233385377611e-08	-3.567029056983541e-08	6.62982327678012e-07	-4.534533131795425e-07	-5.335625906086225e-08	-4.535252875771557e-09	6.721475678307493e-07
0.5600000000000001	-0.02479327080846609	0.08952453382703747	0.8824471140913996	0.533173475455025	-0.2339759025590477	-0.1382426762949873	-0.329427875675191	0.6373323785665004	0.6373323785667657	0.05906140706102923	0.1745209777015864	0.2978676266278353	0.0616412780320409	-0.05532884996406778	-0.01016946957664231	-0.2100222558470418	0.8096855179839725	-0.01564201113608165	0.2101059397291575	-0.5417297420802951	1.256115360772575	1.256115360772612	-0.1923392352921605	-0.0001801169676562419	0.5721794765606538	0.1471127076956227	-0.04259007600018327	0.003587554203570334	0.006704038487320592	-0.3248878486690097	0.002400640790914448	-0.01748898208136234	0.1186184657613925	-34.74926085007644	-42.83124025458103	-11.82216071040724	-1.393516873715467	11.56246784075685	-691.3027486451143	48.51745127213901	-0.05788598299901081	0.08669072763048984	-0.06491330461745799	-0.8903590174432904	-0.006330840709123578	-0.4791420815086746	1.193253027985917	-1.541877014063138	-1.541877014062926	0.3455757097802588	-0.01798378006059923	-0.7141083611929496	-0.09730697192963252	-6.267461852571543e-08	-3.3482181352797e-08	6.119743242857794e-07	-4.327488046474213e-07	-4.954905684849458e-08	-2.143783023457859e-09	6.31597379178039e-07
